# xmcd
#
# Track frame offsets:
#	150
#	23247
#	45202
#	67327
#	92152
#	114375
#	139922
#	164340
#	191242
#	223102
#	241907
#	266262
#	287195
#
# Disc length: 4175 seconds
#
# Revision: 1
# Processed by: cddbd v1.5.1PL0 Copyright (c) Steve Scherf et al.
# Submitted via: CDex 1.50Beta5
#
DISCID=c2104d0d
DTITLE=松田樹利亜 - STEEL and SILK
DYEAR=1998
DGENRE=
TTITLE0=菜の花
TTITLE1=Like A Typhoon
TTITLE2=メタモルフォーゼ
TTITLE3=永遠という瞬間の中で
TTITLE4=LOVE IS A MERRY GO-ROUND
TTITLE5=Bad Dream Rising
TTITLE6=もしもまた出逢えたのなら
TTITLE7=オモイデノヒト
TTITLE8=Wish upon a Star
TTITLE9=PASSION
TTITLE10=I STILL REMEMBER YOU
TTITLE11=Holy Night
TTITLE12=雨の週末
EXTD=
EXTT0=
EXTT1=
EXTT2=
EXTT3=
EXTT4=
EXTT5=
EXTT6=
EXTT7=
EXTT8=
EXTT9=
EXTT10=
EXTT11=
EXTT12=
PLAYORDER=
